<?xml version="1.0" encoding="UTF-8" standalone="no"?>
<!DOCTYPE svg PUBLIC "-//W3C//DTD SVG 1.1//EN" "http://www.w3.org/Graphics/SVG/1.1/DTD/svg11.dtd">
<svg xmlns="http://www.w3.org/2000/svg" version="1.1" viewBox="0.00 0.00 426.00 336.00">
<path fill="#d6a519" d="
  M 118.48 60.25
  Q 129.63 37.34 149.11 24.18
  C 177.55 4.96 213.68 2.82 243.76 19.47
  C 263.44 30.36 277.35 47.17 285.47 68.52
  A 0.53 0.53 0.0 0 1 284.97 69.24
  L 115.80 69.24
  A 0.58 0.57 -81.7 0 1 115.25 68.50
  Q 116.48 64.35 118.48 60.25
  Z
  M 205.55 22.04
  Q 172.71 20.27 148.13 42.49
  Q 141.87 48.15 137.44 54.77
  A 0.46 0.46 0.0 0 0 137.82 55.49
  L 262.78 55.49
  A 0.51 0.50 -17.9 0 0 263.19 54.69
  Q 246.53 31.39 218.10 23.89
  Q 212.51 22.42 205.55 22.04
  Z"
/>
<path fill="#d6a519" d="
  M 184.40 31.90
  A 3.96 3.96 0.0 0 1 180.44 35.86
  A 3.96 3.96 0.0 0 1 176.48 31.90
  A 3.96 3.96 0.0 0 1 180.44 27.94
  A 3.96 3.96 0.0 0 1 184.40 31.90
  Z"
/>
<path fill="#d6a519" d="
  M 207.93 36.06
  A 3.95 3.95 0.0 0 1 203.98 40.01
  A 3.95 3.95 0.0 0 1 200.03 36.06
  A 3.95 3.95 0.0 0 1 203.98 32.11
  A 3.95 3.95 0.0 0 1 207.93 36.06
  Z"
/>
<path fill="#d6a519" d="
  M 188.61 45.75
  A 3.97 3.97 0.0 0 1 184.64 49.72
  A 3.97 3.97 0.0 0 1 180.67 45.75
  A 3.97 3.97 0.0 0 1 184.64 41.78
  A 3.97 3.97 0.0 0 1 188.61 45.75
  Z"
/>
<path fill="#d6a519" d="
  M 239.99 45.73
  A 3.98 3.98 0.0 0 1 236.01 49.71
  A 3.98 3.98 0.0 0 1 232.03 45.73
  A 3.98 3.98 0.0 0 1 236.01 41.75
  A 3.98 3.98 0.0 0 1 239.99 45.73
  Z"
/>
<path fill="#d6a519" d="
  M 163.29 45.75
  A 4.00 4.00 0.0 0 1 159.29 49.75
  A 4.00 4.00 0.0 0 1 155.29 45.75
  A 4.00 4.00 0.0 0 1 159.29 41.75
  A 4.00 4.00 0.0 0 1 163.29 45.75
  Z"
/>
<path fill="#e51f26" d="
  M 284.33 83.22
  A 3.24 3.24 0.0 0 1 281.09 86.46
  L 118.43 86.46
  A 3.24 3.24 0.0 0 1 115.19 83.22
  L 115.19 83.04
  A 3.24 3.24 0.0 0 1 118.43 79.80
  L 281.09 79.80
  A 3.24 3.24 0.0 0 1 284.33 83.04
  L 284.33 83.22
  Z"
/>
<path fill="#f0ba1e" d="
  M 160.88 107.40
  A 1.63 1.55 31.8 0 0 162.04 107.16
  Q 174.70 98.55 186.37 90.65
  A 6.79 6.77 -62.1 0 1 190.19 89.47
  Q 234.99 89.48 280.88 89.47
  Q 285.58 89.47 285.32 94.13
  Q 285.32 94.23 285.31 94.32
  Q 284.96 98.94 280.16 98.95
  Q 238.12 99.02 192.50 98.99
  A 5.54 5.51 -61.8 0 0 189.42 99.93
  Q 177.41 108.00 163.63 117.01
  C 161.67 118.29 159.55 118.16 157.75 116.75
  Q 146.28 107.78 135.44 99.50
  A 3.01 3.00 -28.0 0 0 133.43 98.89
  Q 128.02 99.23 119.77 98.76
  C 113.70 98.42 113.24 89.45 120.18 89.45
  Q 129.05 89.46 135.84 89.48
  Q 137.80 89.48 139.34 90.69
  Q 149.51 98.67 160.63 107.29
  Q 160.74 107.38 160.88 107.40
  Z"
/>
<path fill="#361714" d="
  M 167.58 119.81
  Q 177.12 113.78 187.17 107.12
  C 192.38 103.67 195.69 103.95 202.87 103.94
  Q 233.48 103.88 270.34 104.01
  Q 275.79 104.03 278.08 104.87
  C 286.12 107.83 288.57 117.79 282.50 124.01
  Q 278.69 127.91 272.76 127.91
  Q 201.99 127.82 131.24 128.02
  Q 128.23 128.03 125.31 127.64
  C 114.08 126.16 111.12 111.27 120.46 105.84
  C 124.43 103.53 132.09 102.80 135.84 105.83
  Q 147.14 114.97 155.99 120.72
  C 159.76 123.17 164.01 122.07 167.58 119.81
  Z"
/>
<path fill="#d6a519" d="
  M 280.75 138.61
  Q 267.12 157.37 252.04 176.12
  Q 225.98 208.53 200.28 239.84
  Q 199.83 240.39 199.27 239.93
  Q 198.80 239.55 198.30 238.93
  Q 158.50 189.65 133.08 156.68
  Q 126.73 148.45 120.03 138.62
  A 0.56 0.56 0.0 0 1 120.49 137.74
  L 280.30 137.75
  A 0.55 0.54 17.8 0 1 280.75 138.61
  Z
  M 199.52 174.13
  C 219.73 174.53 239.55 166.37 253.75 152.15
  Q 254.37 151.53 253.49 151.53
  L 147.48 151.53
  Q 146.22 151.53 147.13 152.40
  Q 169.02 173.53 199.52 174.13
  Z"
/>
<path fill="#795f5c" d="
  M 57.58 263.60
  L 58.16 262.73
  Q 58.48 262.25 58.97 261.96
  C 61.12 260.69 65.98 260.67 66.29 264.18
  C 66.77 269.44 60.45 270.87 57.99 266.87
  Q 57.69 266.37 57.35 266.85
  Q 56.21 268.42 54.19 268.92
  A 1.80 1.80 0.0 0 1 53.11 268.86
  Q 50.83 267.98 48.61 268.09
  Q 46.68 268.19 46.13 270.05
  L 45.86 270.95
  Q 45.21 273.15 47.49 272.84
  C 50.42 272.43 56.72 272.91 54.59 277.72
  C 53.45 280.28 49.10 280.25 46.68 280.02
  A 0.95 0.95 0.0 0 0 45.64 280.97
  Q 45.70 290.99 45.52 301.12
  Q 45.46 304.58 41.86 304.87
  Q 39.88 305.02 38.36 301.92
  A 3.32 3.24 32.6 0 1 38.02 300.47
  Q 37.99 287.80 38.02 275.28
  C 38.03 269.35 39.63 264.15 45.28 262.03
  Q 49.82 260.33 54.61 261.87
  Q 56.16 262.36 56.82 263.57
  Q 57.17 264.21 57.58 263.60
  Z
  M 62.31 263.56
  A 0.89 0.89 0.0 0 0 60.91 263.78
  L 60.44 264.63
  A 0.89 0.89 0.0 0 0 60.52 265.60
  L 61.09 266.34
  A 0.89 0.89 0.0 0 0 62.32 266.52
  L 63.20 265.87
  A 0.89 0.89 0.0 0 0 63.29 264.52
  L 62.31 263.56
  Z
  M 45.69 264.78
  Q 40.62 267.06 40.85 272.77
  Q 41.04 277.14 40.92 280.12
  C 40.66 287.31 40.67 294.53 40.83 301.84
  A 0.81 0.81 0.0 0 0 41.39 302.60
  Q 42.62 303.01 42.73 301.57
  Q 43.15 299.60 43.32 295.25
  Q 43.63 287.02 43.01 279.13
  A 1.40 1.39 84.9 0 1 44.25 277.64
  L 47.21 277.32
  Q 49.23 277.11 51.25 277.42
  Q 52.56 277.63 52.34 276.14
  A 0.95 0.95 0.0 0 0 51.79 275.42
  Q 50.75 274.97 49.23 275.28
  L 43.59 274.88
  Q 43.08 274.85 43.11 274.34
  L 43.52 268.22
  Q 45.56 265.94 48.30 265.33
  C 50.27 264.89 52.05 265.80 53.96 266.35
  Q 55.17 265.90 54.82 264.63
  Q 54.67 264.13 54.17 264.01
  Q 49.73 262.96 45.69 264.78
  Z"
/>
<g stroke-width="2.00" fill="none" stroke-linecap="butt">
<path stroke="#583b38" d="
  M 42.73 301.57
  Q 43.15 299.60 43.32 295.25
  Q 43.63 287.02 43.01 279.13
  A 1.40 1.39 84.9 0 1 44.25 277.64
  L 47.21 277.32"
/>
<path stroke="#583b38" d="
  M 49.23 275.28
  L 43.59 274.88
  Q 43.08 274.85 43.11 274.34
  L 43.52 268.22"
/>
<path stroke="#583b38" d="
  M 53.96 266.35
  Q 55.17 265.90 54.82 264.63
  Q 54.67 264.13 54.17 264.01
  Q 49.73 262.96 45.69 264.78"
/>
</g>
<path fill="#8e7d7a" fill-opacity="0.996" d="
  M 125.63 274.25
  Q 125.26 269.12 125.53 264.51
  Q 125.69 261.87 128.24 261.18
  Q 128.91 261.00 129.54 261.13
  Q 132.86 261.83 132.88 265.23
  Q 132.95 276.63 132.92 288.12
  C 132.89 304.34 114.09 310.86 103.55 298.68
  Q 99.16 293.61 100.40 286.09
  C 101.19 281.27 105.11 276.13 109.76 274.16
  Q 117.32 270.94 124.74 274.82
  Q 125.70 275.33 125.63 274.25
  Z
  M 103.24 293.53
  L 104.00 295.25
  Q 103.97 295.51 104.03 295.87
  Q 104.07 296.15 104.23 296.38
  Q 109.90 304.67 119.76 302.68
  C 129.91 300.63 131.82 291.80 131.35 282.29
  Q 130.91 273.43 131.26 263.58
  A 1.61 1.61 0.0 0 0 130.05 261.96
  Q 128.22 261.51 127.57 263.40
  Q 127.17 264.56 127.20 265.68
  Q 127.33 270.89 127.35 276.81
  A 0.92 0.91 15.8 0 1 125.95 277.59
  C 122.27 275.30 118.38 273.35 113.83 274.59
  Q 101.15 278.04 102.39 291.24
  Q 102.48 292.18 103.24 293.53
  Z"
/>
<path stroke="#624a47" stroke-width="2.00" fill="none" stroke-linecap="butt" d="
  M 104.00 295.25
  Q 103.97 295.51 104.03 295.87
  Q 104.07 296.15 104.23 296.38
  Q 109.90 304.67 119.76 302.68
  C 129.91 300.63 131.82 291.80 131.35 282.29
  Q 130.91 273.43 131.26 263.58
  A 1.61 1.61 0.0 0 0 130.05 261.96
  Q 128.22 261.51 127.57 263.40
  Q 127.17 264.56 127.20 265.68
  Q 127.33 270.89 127.35 276.81
  A 0.92 0.91 15.8 0 1 125.95 277.59
  C 122.27 275.30 118.38 273.35 113.83 274.59
  Q 101.15 278.04 102.39 291.24
  Q 102.48 292.18 103.24 293.53"
/>
<path fill="#795f5c" d="
  M 271.31 273.98
  C 273.71 273.24 276.02 272.29 278.56 272.62
  Q 287.01 273.70 290.76 280.77
  Q 292.65 284.33 292.48 290.11
  Q 292.33 295.57 292.39 300.53
  Q 292.45 304.37 288.65 304.95
  Q 288.05 305.04 287.47 304.75
  Q 284.79 303.39 284.75 300.39
  Q 284.68 294.52 284.76 288.23
  C 284.81 284.71 283.58 281.04 279.68 280.28
  C 273.95 279.15 270.30 282.08 270.32 288.05
  Q 270.34 295.17 270.28 300.65
  Q 270.25 303.56 267.60 304.75
  Q 266.88 305.07 266.23 304.90
  Q 262.74 303.96 262.73 300.35
  L 262.73 265.02
  Q 262.73 261.42 266.32 261.15
  Q 266.86 261.10 267.41 261.20
  Q 270.29 261.71 270.31 264.64
  L 270.36 273.28
  A 0.74 0.73 81.2 0 0 271.31 273.98
  Z
  M 267.57 284.07
  L 269.99 280.29
  Q 273.88 277.75 275.34 277.51
  Q 282.12 276.43 286.03 281.45
  Q 287.22 282.98 287.27 284.68
  Q 287.55 293.59 287.58 301.55
  Q 287.58 302.39 288.42 302.41
  L 288.74 302.42
  A 0.51 0.51 0.0 0 0 289.26 301.92
  C 289.36 296.36 290.32 290.59 289.28 285.17
  Q 288.61 281.70 285.72 279.02
  Q 279.07 272.83 269.30 277.83
  Q 268.24 278.37 268.06 277.19
  Q 267.16 270.99 267.41 264.76
  Q 267.44 263.96 266.70 263.65
  L 266.41 263.53
  A 0.51 0.51 0.0 0 0 265.70 264.00
  L 265.40 301.63
  Q 265.40 302.58 266.33 302.73
  Q 266.55 302.77 266.76 302.69
  Q 267.73 302.35 267.73 301.32
  L 267.57 284.07
  Z"
/>
<path stroke="#583b38" stroke-width="2.00" fill="none" stroke-linecap="butt" d="
  M 267.57 284.07
  L 269.99 280.29"
/>
<path fill="#361714" d="
  M 104.00 295.25
  Q 104.38 295.61 104.42 295.64
  Q 105.47 296.28 104.87 295.21
  Q 104.10 293.85 103.82 292.19
  C 103.43 289.90 104.52 287.98 103.69 285.47
  Q 103.38 284.54 103.26 285.51
  Q 102.76 289.52 103.24 293.53
  Q 102.48 292.18 102.39 291.24
  Q 101.15 278.04 113.83 274.59
  C 118.38 273.35 122.27 275.30 125.95 277.59
  A 0.92 0.91 15.8 0 0 127.35 276.81
  Q 127.33 270.89 127.20 265.68
  Q 127.17 264.56 127.57 263.40
  Q 128.22 261.51 130.05 261.96
  A 1.61 1.61 0.0 0 1 131.26 263.58
  Q 130.91 273.43 131.35 282.29
  C 131.82 291.80 129.91 300.63 119.76 302.68
  Q 109.90 304.67 104.23 296.38
  Q 104.07 296.15 104.03 295.87
  Q 103.97 295.51 104.00 295.25
  Z
  M 111.25 277.73
  Q 110.90 277.65 110.55 277.73
  Q 109.12 278.04 110.51 278.50
  Q 111.24 278.74 111.89 278.13
  Q 112.29 277.75 111.75 277.64
  Q 111.48 277.59 111.25 277.73
  Z
  M 123.78 278.20
  Q 124.15 277.88 123.68 277.72
  Q 122.54 277.34 121.05 277.48
  Q 120.37 277.54 120.85 278.03
  Q 122.30 279.50 123.78 278.20
  Z
  M 116.27 298.86
  Q 116.52 298.74 116.73 298.87
  Q 116.81 299.27 117.49 299.21
  C 127.54 298.21 130.39 286.58 123.20 280.19
  Q 121.48 278.66 119.42 278.45
  C 116.69 278.18 113.37 277.82 110.99 279.40
  C 103.83 284.16 103.99 294.22 111.60 298.40
  Q 113.20 299.27 116.27 298.86
  Z"
/>
<path stroke="#624a47" stroke-width="2.00" fill="none" stroke-linecap="butt" d="
  M 116.73 298.87
  Q 116.81 299.27 117.49 299.21
  C 127.54 298.21 130.39 286.58 123.20 280.19
  Q 121.48 278.66 119.42 278.45
  C 116.69 278.18 113.37 277.82 110.99 279.40
  C 103.83 284.16 103.99 294.22 111.60 298.40
  Q 113.20 299.27 116.27 298.86"
/>
<path fill="#361714" d="
  M 53.96 266.35
  Q 54.45 265.80 54.47 265.74
  Q 54.72 265.13 54.09 264.93
  Q 49.98 263.63 45.69 264.78
  Q 49.73 262.96 54.17 264.01
  Q 54.67 264.13 54.82 264.63
  Q 55.17 265.90 53.96 266.35
  Z"
/>
<path fill="#361714" d="
  M 43.52 268.22
  L 43.11 274.34
  Q 43.08 274.85 43.59 274.88
  L 49.23 275.28
  Q 46.02 274.95 43.51 275.75
  A 0.82 0.81 74.6 0 1 42.47 275.15
  Q 41.55 271.17 43.52 268.22
  Z"
/>
<path fill="#795f5c" d="
  M 66.13 288.49
  Q 65.23 294.54 66.09 300.57
  Q 66.05 302.64 64.59 303.86
  C 62.21 305.85 58.58 304.74 58.40 301.43
  C 57.98 293.58 58.27 285.34 58.14 276.73
  C 58.05 271.16 65.77 271.25 65.88 276.42
  Q 66.03 283.77 66.13 288.49
  Z
  M 61.72 275.03
  Q 60.60 277.02 61.07 279.79
  L 60.39 301.47
  A 1.38 1.38 0.0 0 0 61.20 302.77
  Q 61.61 302.96 62.03 302.90
  Q 63.50 302.66 63.53 301.17
  Q 63.76 291.62 63.47 277.75
  Q 63.41 274.85 61.72 275.03
  Z"
/>
<path stroke="#583b38" stroke-width="2.00" fill="none" stroke-linecap="butt" d="
  M 61.07 279.79
  L 60.39 301.47
  A 1.38 1.38 0.0 0 0 61.20 302.77
  Q 61.61 302.96 62.03 302.90
  Q 63.50 302.66 63.53 301.17
  Q 63.76 291.62 63.47 277.75
  Q 63.41 274.85 61.72 275.03"
/>
<path fill="#795f5c" d="
  M 68.06 301.12
  Q 68.97 294.49 68.07 287.84
  Q 68.23 281.09 72.71 276.85
  C 80.26 269.70 92.56 271.96 96.56 281.70
  Q 97.94 285.05 97.81 290.14
  Q 97.69 295.45 97.74 300.32
  Q 97.79 304.09 94.10 304.87
  Q 93.68 304.96 93.28 304.85
  A 4.16 4.14 -81.8 0 1 90.18 300.69
  Q 90.43 293.25 90.16 287.09
  Q 89.87 280.60 84.00 280.08
  Q 76.06 279.38 75.86 287.44
  Q 75.70 293.59 75.83 300.72
  C 75.94 306.19 68.45 306.17 68.06 301.12
  Z
  M 85.80 277.92
  Q 86.85 278.09 87.68 278.75
  C 88.61 279.98 89.92 280.55 90.68 281.83
  Q 92.11 284.24 92.10 286.96
  Q 92.08 293.79 92.22 300.57
  A 2.74 2.51 -84.7 0 0 94.18 303.15
  Q 94.78 303.29 95.62 302.56
  A 1.48 1.46 -20.8 0 0 96.14 301.42
  Q 96.06 295.71 96.14 290.30
  C 96.26 282.26 93.41 276.76 85.36 274.77
  Q 82.37 274.03 79.13 275.44
  C 74.42 277.49 71.25 280.63 70.65 286.02
  Q 69.84 293.19 70.48 301.61
  Q 70.58 302.87 71.84 302.97
  Q 71.98 302.98 72.12 302.94
  A 2.16 2.16 0.0 0 0 73.63 300.95
  Q 73.82 294.14 73.71 287.83
  Q 73.60 281.52 78.52 278.75
  C 80.61 277.57 83.37 278.05 85.80 277.92
  Z"
/>
<path stroke="#583b38" stroke-width="2.00" fill="none" stroke-linecap="butt" d="
  M 87.68 278.75
  C 88.61 279.98 89.92 280.55 90.68 281.83
  Q 92.11 284.24 92.10 286.96
  Q 92.08 293.79 92.22 300.57
  A 2.74 2.51 -84.7 0 0 94.18 303.15
  Q 94.78 303.29 95.62 302.56
  A 1.48 1.46 -20.8 0 0 96.14 301.42
  Q 96.06 295.71 96.14 290.30
  C 96.26 282.26 93.41 276.76 85.36 274.77
  Q 82.37 274.03 79.13 275.44
  C 74.42 277.49 71.25 280.63 70.65 286.02
  Q 69.84 293.19 70.48 301.61
  Q 70.58 302.87 71.84 302.97
  Q 71.98 302.98 72.12 302.94
  A 2.16 2.16 0.0 0 0 73.63 300.95
  Q 73.82 294.14 73.71 287.83
  Q 73.60 281.52 78.52 278.75
  C 80.61 277.57 83.37 278.05 85.80 277.92"
/>
<path fill="#795f5c" d="
  M 252.18 294.25
  Q 251.64 293.80 250.76 293.61
  C 246.95 292.78 242.84 291.82 239.54 290.26
  C 232.07 286.74 233.99 276.92 240.91 273.99
  Q 248.00 270.99 255.04 274.68
  C 258.05 276.25 261.14 280.60 256.76 282.86
  Q 254.94 283.80 253.13 282.26
  Q 249.37 279.10 243.86 280.39
  A 2.05 2.05 0.0 0 0 242.56 283.42
  Q 243.68 285.33 246.03 285.39
  Q 250.92 285.51 255.81 288.09
  C 263.22 292.00 260.95 300.93 254.05 303.63
  Q 242.93 307.99 234.81 299.57
  C 232.40 297.07 233.88 292.79 237.58 293.53
  Q 238.57 293.73 240.48 295.22
  Q 243.37 297.46 247.37 298.29
  C 249.04 298.63 250.43 297.75 251.85 297.05
  A 1.68 1.68 0.0 0 0 252.18 294.25
  Z
  M 240.64 285.29
  C 238.88 282.46 240.22 279.04 243.49 277.96
  C 248.51 276.30 251.01 277.86 254.75 280.63
  Q 255.79 281.40 256.49 280.31
  Q 256.68 280.01 256.58 279.69
  Q 256.22 278.52 255.14 277.89
  Q 247.99 273.75 240.83 276.58
  Q 238.41 277.53 237.59 280.11
  Q 235.54 286.62 242.07 288.88
  Q 246.38 290.38 251.16 291.24
  Q 256.14 292.14 254.85 296.90
  Q 254.40 298.59 252.77 299.29
  Q 243.73 303.20 237.88 295.79
  Q 237.26 295.01 236.41 295.53
  Q 235.57 296.03 236.41 297.87
  A 1.85 1.77 7.4 0 0 236.92 298.50
  Q 245.54 305.24 254.39 300.73
  C 259.24 298.26 259.73 291.50 253.92 289.56
  Q 249.48 288.07 244.19 287.22
  Q 241.58 286.80 240.64 285.29
  Z"
/>
<path fill="#795f5c" d="
  M 327.5643 287.9495
  A 16.49 16.15 -3.2 0 1 312.0015 304.9948
  A 16.49 16.15 -3.2 0 1 294.6357 289.7905
  A 16.49 16.15 -3.2 0 1 310.1985 272.7452
  A 16.49 16.15 -3.2 0 1 327.5643 287.9495
  Z
  M 298.42 284.37
  Q 295.82 290.91 300.20 297.09
  Q 301.36 299.16 302.75 300.03
  Q 305.77 301.92 309.89 302.76
  L 312.12 302.47
  Q 317.03 302.61 319.89 299.42
  Q 327.87 292.10 322.85 281.95
  Q 321.71 279.36 319.26 277.21
  Q 318.05 276.16 316.66 275.82
  Q 314.99 275.40 313.30 274.74
  Q 311.97 274.22 310.70 274.40
  Q 309.18 274.61 307.97 275.18
  C 303.41 277.33 299.17 278.43 298.42 284.37
  Z"
/>
<g stroke-width="2.00" fill="none" stroke-linecap="butt">
<path stroke="#583b38" d="
  M 300.20 297.09
  Q 301.36 299.16 302.75 300.03
  Q 305.77 301.92 309.89 302.76"
/>
<path stroke="#583b38" d="
  M 312.12 302.47
  Q 317.03 302.61 319.89 299.42"
/>
<path stroke="#583b38" d="
  M 322.85 281.95
  Q 321.71 279.36 319.26 277.21
  Q 318.05 276.16 316.66 275.82
  Q 314.99 275.40 313.30 274.74
  Q 311.97 274.22 310.70 274.40
  Q 309.18 274.61 307.97 275.18
  C 303.41 277.33 299.17 278.43 298.42 284.37"
/>
<path stroke="#583b38" d="
  M 303.95 279.25
  L 301.12 282.44"
/>
<path stroke="#583b38" d="
  M 321.05 296.70
  Q 319.60 296.40 318.67 297.21
  Q 318.48 297.38 318.22 297.38
  Q 318.05 297.37 317.89 297.38
  A 1.25 1.25 0.0 0 0 317.17 297.63
  Q 312.55 301.05 306.76 298.78
  Q 303.29 297.43 300.73 295.18"
/>
</g>
<path fill="#795f5c" d="
  M 337.51 303.51
  Q 337.61 308.30 337.48 312.83
  C 337.33 318.16 330.07 318.16 329.98 312.94
  Q 329.77 301.54 330.07 287.80
  C 330.25 279.39 337.30 273.60 345.21 272.63
  Q 348.98 272.17 353.53 274.29
  C 364.43 279.36 366.21 294.31 356.55 301.58
  C 351.42 305.44 343.88 306.43 338.38 303.01
  Q 337.49 302.46 337.51 303.51
  Z
  M 334.04 314.34
  Q 334.69 314.03 334.69 313.50
  Q 334.70 306.87 335.00 300.31
  Q 335.89 298.87 338.45 300.17
  Q 343.10 302.86 347.90 302.58
  Q 352.56 303.01 356.27 298.45
  L 358.89 295.33
  Q 363.07 287.06 357.96 280.20
  C 355.94 277.50 353.05 276.16 350.02 275.08
  Q 346.39 273.78 342.92 275.05
  Q 339.82 276.18 337.62 277.54
  Q 335.40 278.91 334.02 281.63
  Q 332.20 285.26 332.21 288.34
  Q 332.24 299.83 332.82 313.70
  A 0.88 0.87 -74.2 0 0 333.21 314.41
  Q 334.04 314.95 334.04 314.34
  Z"
/>
<g stroke-width="2.00" fill="none" stroke-linecap="butt">
<path stroke="#583b38" d="
  M 335.00 300.31
  Q 335.89 298.87 338.45 300.17"
/>
<path stroke="#583b38" d="
  M 347.90 302.58
  Q 352.56 303.01 356.27 298.45"
/>
<path stroke="#583b38" d="
  M 358.89 295.33
  Q 363.07 287.06 357.96 280.20
  C 355.94 277.50 353.05 276.16 350.02 275.08
  Q 346.39 273.78 342.92 275.05
  Q 339.82 276.18 337.62 277.54
  Q 335.40 278.91 334.02 281.63
  Q 332.20 285.26 332.21 288.34
  Q 332.24 299.83 332.82 313.70
  A 0.88 0.87 -74.2 0 0 333.21 314.41
  Q 334.04 314.95 334.04 314.34"
/>
</g>
<path fill="#361714" d="
  M 184.39 277.39
  L 184.40 302.23
  Q 184.09 299.92 183.10 299.73
  A 0.06 0.06 0.0 0 1 183.11 299.62
  L 183.41 299.61
  Q 183.70 299.60 183.73 299.31
  C 184.18 294.82 183.59 290.68 183.78 286.27
  Q 183.89 283.76 183.59 281.47
  Q 183.36 279.73 181.67 279.01
  A 0.48 0.48 0.0 0 0 181.03 279.61
  Q 182.46 283.68 182.75 288.42
  Q 182.77 288.69 183.03 288.63
  Q 183.19 288.59 183.34 288.63
  Q 183.68 288.74 183.36 288.87
  Q 183.15 288.95 183.03 288.76
  A 0.04 0.04 0.0 0 0 182.95 288.78
  L 182.31 301.33
  Q 181.43 293.43 181.60 285.53
  Q 181.67 281.76 180.73 280.25
  Q 178.72 277.05 173.99 277.69
  C 170.22 278.20 169.01 281.34 169.02 284.77
  Q 169.06 293.42 169.15 301.04
  Q 169.17 302.54 167.79 303.12
  Q 166.67 303.60 165.48 301.92
  A 1.82 1.77 -63.8 0 1 165.15 300.91
  Q 165.09 292.70 165.10 284.60
  C 165.11 281.31 163.98 278.18 160.14 277.91
  C 154.16 277.49 152.89 281.03 152.91 286.09
  Q 152.94 293.73 152.85 300.47
  A 2.20 2.15 59.0 0 1 152.64 301.36
  Q 150.80 305.25 149.09 301.74
  A 1.79 1.78 32.2 0 1 148.91 300.96
  Q 148.96 293.05 148.84 285.39
  Q 148.80 283.22 149.31 280.84
  Q 149.75 278.77 150.20 276.53
  Q 152.01 273.89 155.46 273.03
  C 157.25 272.59 158.83 273.03 160.64 272.81
  C 162.46 272.59 164.75 273.88 166.23 274.83
  A 1.56 1.54 -42.0 0 0 167.76 274.90
  Q 169.19 274.18 170.63 273.42
  C 172.59 272.39 174.69 272.88 176.81 272.75
  Q 178.17 272.66 179.67 273.30
  Q 183.27 274.82 184.39 277.39
  Z"
/>
<path fill="#8e7d7a" fill-opacity="0.996" d="
  M 199.81 296.76
  Q 199.47 297.73 198.25 297.25
  C 197.40 296.91 196.37 295.77 196.20 294.83
  C 195.84 292.95 195.00 291.25 194.96 289.30
  Q 194.82 282.75 194.79 276.07
  A 1.32 1.31 79.3 0 0 193.00 274.85
  Q 192.22 275.15 192.21 275.99
  Q 192.27 276.39 191.96 276.67
  Q 191.60 278.27 191.55 280.75
  Q 191.38 288.88 192.70 295.41
  Q 200.19 306.22 210.90 300.85
  Q 213.04 300.05 213.32 301.75
  C 213.94 305.61 212.46 308.60 208.72 310.08
  Q 201.11 313.10 194.21 308.23
  Q 193.76 307.30 192.84 307.65
  A 1.46 1.33 50.2 0 0 192.74 310.11
  L 196.24 312.54
  Q 202.93 316.40 209.55 312.84
  L 213.05 310.38
  Q 217.02 306.26 217.20 301.01
  Q 217.39 295.40 217.06 275.59
  Q 217.05 274.97 215.76 274.25
  Q 215.43 274.06 215.11 274.26
  Q 213.42 275.27 213.41 276.50
  Q 213.35 284.09 213.15 291.24
  Q 213.03 295.72 209.97 296.54
  Q 211.71 293.23 211.71 291.50
  Q 211.72 284.17 211.81 276.27
  Q 211.85 272.87 215.25 272.76
  Q 215.72 272.74 216.18 272.85
  Q 218.95 273.49 218.96 276.34
  Q 219.00 287.54 219.07 299.75
  C 219.11 307.15 216.49 312.59 209.60 315.21
  Q 204.95 316.98 202.69 316.51
  Q 201.07 316.17 199.52 315.92
  C 196.64 315.45 193.64 313.89 191.51 312.01
  C 187.13 308.14 192.23 302.90 196.65 307.03
  C 200.67 310.79 208.60 310.17 211.19 304.87
  A 0.67 0.67 0.0 0 0 210.34 303.95
  C 200.96 307.65 190.13 301.67 189.80 291.17
  Q 189.56 283.48 189.75 276.57
  Q 189.84 273.07 193.32 272.73
  Q 193.71 272.69 194.08 272.79
  Q 196.67 273.52 196.73 275.41
  Q 196.98 283.16 196.97 291.25
  Q 196.97 294.53 199.81 296.76
  Z"
/>
<path fill="#361714" d="
  M 213.05 310.38
  L 215.76 304.36
  Q 216.18 303.42 215.18 303.69
  Q 214.62 303.85 214.20 304.19
  A 1.06 1.06 0.0 0 0 213.83 305.13
  Q 214.17 307.59 212.49 309.21
  Q 210.49 311.13 207.92 312.17
  Q 206.31 312.83 208.04 312.95
  Q 208.25 312.96 209.55 312.84
  Q 202.93 316.40 196.24 312.54
  Q 197.77 313.14 199.29 312.95
  Q 200.46 312.81 199.30 312.63
  Q 199.08 312.59 198.89 312.41
  Q 198.59 312.13 198.18 312.08
  Q 194.74 311.66 194.21 308.23
  Q 201.11 313.10 208.72 310.08
  C 212.46 308.60 213.94 305.61 213.32 301.75
  Q 213.04 300.05 210.90 300.85
  L 211.46 300.36
  Q 211.94 299.95 211.40 299.62
  Q 211.00 299.38 210.54 299.45
  C 208.45 299.79 206.67 300.81 204.50 300.85
  Q 197.85 300.98 194.31 295.44
  A 3.49 3.48 -59.4 0 1 193.77 293.32
  Q 194.20 286.98 193.70 280.56
  A 0.50 0.50 0.0 0 0 193.31 280.11
  Q 193.02 280.06 192.89 280.25
  Q 192.66 280.57 193.06 280.57
  Q 193.20 280.57 193.32 280.59
  Q 193.72 280.64 193.35 280.80
  Q 192.49 281.17 192.39 282.25
  Q 191.74 288.93 192.70 295.41
  Q 191.38 288.88 191.55 280.75
  Q 191.60 278.27 191.96 276.67
  L 192.63 278.77
  Q 192.78 279.24 193.12 278.89
  Q 194.09 277.90 194.29 276.51
  Q 194.42 275.57 193.81 275.26
  Q 193.35 275.02 192.96 275.36
  L 192.21 275.99
  Q 192.22 275.15 193.00 274.85
  A 1.32 1.31 79.3 0 1 194.79 276.07
  Q 194.82 282.75 194.96 289.30
  C 195.00 291.25 195.84 292.95 196.20 294.83
  C 196.37 295.77 197.40 296.91 198.25 297.25
  Q 199.47 297.73 199.81 296.76
  L 203.73 298.70
  Q 204.18 298.92 204.67 298.80
  Q 207.54 298.13 209.97 296.54
  Q 213.03 295.72 213.15 291.24
  Q 213.35 284.09 213.41 276.50
  Q 213.42 275.27 215.11 274.26
  Q 215.43 274.06 215.76 274.25
  Q 217.05 274.97 217.06 275.59
  Q 217.39 295.40 217.20 301.01
  Q 217.02 306.26 213.05 310.38
  Z"
/>
<path fill="#361714" d="
  M 322.85 281.95
  Q 321.20 280.48 319.63 279.03
  Q 317.86 277.42 315.92 276.96
  Q 312.29 276.12 308.54 276.40
  Q 304.22 276.74 303.95 279.25
  L 301.12 282.44
  Q 300.91 280.43 298.42 284.37
  C 299.17 278.43 303.41 277.33 307.97 275.18
  Q 309.18 274.61 310.70 274.40
  Q 311.97 274.22 313.30 274.74
  Q 314.99 275.40 316.66 275.82
  Q 318.05 276.16 319.26 277.21
  Q 321.71 279.36 322.85 281.95
  Z"
/>
<path fill="#361714" d="
  M 358.89 295.33
  Q 359.11 294.23 358.96 293.52
  Q 358.81 292.76 358.51 293.47
  Q 356.93 297.21 352.99 299.95
  Q 352.85 300.04 352.94 300.17
  L 353.11 300.41
  A 0.29 0.28 -34.5 0 0 353.51 300.48
  L 356.27 298.45
  Q 352.56 303.01 347.90 302.58
  Q 342.63 300.97 338.62 298.27
  A 0.62 0.62 0.0 0 0 337.65 298.84
  Q 337.70 299.45 338.45 300.17
  Q 335.89 298.87 335.00 300.31
  Q 335.03 298.87 334.20 298.24
  Q 333.76 297.90 333.72 298.45
  Q 333.18 306.19 333.69 313.87
  Q 333.46 314.12 334.04 314.34
  Q 334.04 314.95 333.21 314.41
  A 0.88 0.87 -74.2 0 1 332.82 313.70
  Q 332.24 299.83 332.21 288.34
  Q 332.20 285.26 334.02 281.63
  Q 335.40 278.91 337.62 277.54
  Q 339.82 276.18 342.92 275.05
  Q 346.39 273.78 350.02 275.08
  C 353.05 276.16 355.94 277.50 357.96 280.20
  Q 363.07 287.06 358.89 295.33
  Z
  M 339.48 279.31
  L 335.09 286.01
  L 335.70 283.77
  Q 335.93 282.95 335.30 283.53
  C 332.85 285.84 333.29 290.99 334.02 294.33
  Q 334.08 294.61 334.34 294.48
  L 334.90 294.21
  Q 335.11 294.11 335.10 293.88
  L 334.98 291.79
  Q 336.57 295.10 339.43 297.79
  Q 340.61 298.90 341.89 298.96
  Q 343.52 299.03 344.71 298.09
  Q 346.29 298.91 347.85 298.43
  Q 348.74 299.92 351.39 298.39
  Q 353.55 297.14 355.29 295.19
  Q 356.87 293.41 357.17 290.93
  Q 358.16 282.71 351.24 278.95
  Q 349.55 278.04 347.08 278.01
  Q 344.92 277.98 342.71 277.94
  L 346.14 277.17
  Q 346.70 277.05 346.14 276.91
  Q 340.23 275.40 339.48 279.31
  Z
  M 351.24 277.46
  C 350.43 277.39 349.65 277.10 348.78 277.02
  Q 347.73 276.94 348.73 277.28
  L 353.01 278.73
  Q 353.95 279.04 353.26 278.34
  Q 352.49 277.56 351.24 277.46
  Z"
/>
<g stroke-width="2.00" fill="none" stroke-linecap="butt">
<path stroke="#583b38" d="
  M 339.48 279.31
  L 335.09 286.01"
/>
<path stroke="#583b38" d="
  M 334.98 291.79
  Q 336.57 295.10 339.43 297.79
  Q 340.61 298.90 341.89 298.96
  Q 343.52 299.03 344.71 298.09"
/>
<path stroke="#583b38" d="
  M 347.85 298.43
  Q 348.74 299.92 351.39 298.39
  Q 353.55 297.14 355.29 295.19
  Q 356.87 293.41 357.17 290.93
  Q 358.16 282.71 351.24 278.95
  Q 349.55 278.04 347.08 278.01
  Q 344.92 277.98 342.71 277.94"
/>
</g>
<path fill="#361714" d="
  M 87.68 278.75
  L 88.22 278.62
  Q 89.25 278.36 88.38 277.75
  C 84.97 275.32 79.47 276.23 75.90 277.78
  Q 75.27 278.06 74.93 278.65
  A 0.26 0.26 0.0 0 0 75.19 279.04
  C 79.06 278.42 81.72 276.37 85.80 277.92
  C 83.37 278.05 80.61 277.57 78.52 278.75
  Q 73.60 281.52 73.71 287.83
  Q 73.82 294.14 73.63 300.95
  A 2.16 2.16 0.0 0 1 72.12 302.94
  Q 71.98 302.98 71.84 302.97
  Q 70.58 302.87 70.48 301.61
  Q 69.84 293.19 70.65 286.02
  C 71.25 280.63 74.42 277.49 79.13 275.44
  Q 82.37 274.03 85.36 274.77
  C 93.41 276.76 96.26 282.26 96.14 290.30
  Q 96.06 295.71 96.14 301.42
  A 1.48 1.46 -20.8 0 1 95.62 302.56
  Q 94.78 303.29 94.18 303.15
  A 2.74 2.51 -84.7 0 1 92.22 300.57
  Q 92.08 293.79 92.10 286.96
  Q 92.11 284.24 90.68 281.83
  C 89.92 280.55 88.61 279.98 87.68 278.75
  Z
  M 93.07 300.80
  Q 92.98 301.67 93.45 302.18
  A 0.36 0.36 0.0 0 0 94.07 301.98
  Q 94.15 301.26 93.67 300.63
  Q 93.15 299.95 93.07 300.80
  Z"
/>
<path fill="#361714" d="
  M 61.07 279.79
  L 61.58 284.62
  Q 61.58 284.65 61.59 284.62
  Q 62.80 279.49 61.72 275.03
  Q 63.41 274.85 63.47 277.75
  Q 63.76 291.62 63.53 301.17
  Q 63.50 302.66 62.03 302.90
  Q 61.61 302.96 61.20 302.77
  A 1.38 1.38 0.0 0 1 60.39 301.47
  L 61.07 279.79
  Z"
/>
<path fill="#8e7d7a" fill-opacity="0.996" d="
  M 150.20 276.53
  Q 149.75 278.77 149.31 280.84
  Q 148.80 283.22 148.84 285.39
  Q 148.96 293.05 148.91 300.96
  A 1.79 1.78 32.2 0 0 149.09 301.74
  Q 150.80 305.25 152.64 301.36
  A 2.20 2.15 59.0 0 0 152.85 300.47
  Q 152.94 293.73 152.91 286.09
  C 152.89 281.03 154.16 277.49 160.14 277.91
  C 163.98 278.18 165.11 281.31 165.10 284.60
  Q 165.09 292.70 165.15 300.91
  A 1.82 1.77 -63.8 0 0 165.48 301.92
  Q 166.67 303.60 167.79 303.12
  Q 169.17 302.54 169.15 301.04
  Q 169.06 293.42 169.02 284.77
  C 169.01 281.34 170.22 278.20 173.99 277.69
  Q 178.72 277.05 180.73 280.25
  Q 181.67 281.76 181.60 285.53
  Q 181.43 293.43 182.31 301.33
  Q 181.89 301.94 182.66 302.37
  Q 183.08 302.61 183.56 302.48
  L 184.40 302.23
  L 184.39 277.39
  Q 186.75 279.98 186.84 283.00
  Q 187.11 292.12 186.79 300.91
  Q 186.68 304.27 183.38 304.91
  Q 182.80 305.03 182.27 304.86
  Q 179.51 303.98 179.50 301.08
  Q 179.48 293.09 179.50 284.45
  Q 179.51 279.65 175.19 279.64
  C 172.25 279.64 170.74 280.69 170.76 283.79
  Q 170.79 292.59 170.76 300.95
  C 170.75 303.27 168.82 305.62 166.26 304.80
  Q 163.33 303.86 163.32 300.79
  L 163.25 283.64
  Q 163.24 279.54 159.14 279.62
  L 158.50 279.64
  Q 154.47 279.72 154.50 283.75
  L 154.61 300.89
  Q 154.63 303.77 151.91 304.72
  Q 151.25 304.95 150.63 304.81
  Q 147.36 304.05 147.27 300.70
  Q 147.06 292.34 147.32 284.01
  Q 147.45 279.88 150.20 276.53
  Z"
/>
<path fill="#361714" d="
  M 47.21 277.32
  L 44.25 277.64
  A 1.40 1.39 84.9 0 0 43.01 279.13
  Q 43.63 287.02 43.32 295.25
  Q 43.15 299.60 42.73 301.57
  Q 41.81 300.37 41.80 299.75
  C 41.74 292.59 41.19 285.08 42.64 278.13
  Q 42.80 277.34 43.61 277.34
  L 47.21 277.32
  Z"
/>
<path fill="#795f5c" d="
  M 321.05 296.70
  Q 319.60 296.40 318.67 297.21
  Q 318.48 297.38 318.22 297.38
  Q 318.05 297.37 317.89 297.38
  A 1.25 1.25 0.0 0 0 317.17 297.63
  Q 312.55 301.05 306.76 298.78
  Q 303.29 297.43 300.73 295.18
  Q 297.80 288.83 301.12 282.44
  L 303.95 279.25
  Q 312.46 274.96 319.46 280.31
  C 324.49 284.15 323.65 291.84 321.05 296.70
  Z
  M 310.8433 298.3372
  A 9.28 8.93 91.4 0 0 319.9973 289.2782
  A 9.28 8.93 91.4 0 0 311.2967 279.7828
  A 9.28 8.93 91.4 0 0 302.1427 288.8418
  A 9.28 8.93 91.4 0 0 310.8433 298.3372
  Z"
/>
<path fill="#795f5c" d="
  M 342.71 277.94
  Q 344.92 277.98 347.08 278.01
  Q 349.55 278.04 351.24 278.95
  Q 358.16 282.71 357.17 290.93
  Q 356.87 293.41 355.29 295.19
  Q 353.55 297.14 351.39 298.39
  Q 348.74 299.92 347.85 298.43
  C 349.68 297.28 351.73 296.70 353.16 295.16
  Q 355.71 292.41 355.20 287.69
  Q 354.49 281.08 348.00 280.15
  C 339.83 278.98 336.01 285.90 338.30 292.99
  Q 339.38 296.34 344.71 298.09
  Q 343.52 299.03 341.89 298.96
  Q 340.61 298.90 339.43 297.79
  Q 336.57 295.10 334.98 291.79
  L 335.09 286.01
  L 339.48 279.31
  L 342.71 277.94
  Z"
/>
<path fill="#8e7d7a" fill-opacity="0.996" d="
  M 116.73 298.87
  C 122.20 296.97 126.09 294.23 125.35 287.88
  Q 124.34 279.18 114.84 280.07
  C 109.00 280.62 106.67 286.62 107.90 291.86
  C 108.83 295.87 112.76 297.53 116.27 298.86
  Q 113.20 299.27 111.60 298.40
  C 103.99 294.22 103.83 284.16 110.99 279.40
  C 113.37 277.82 116.69 278.18 119.42 278.45
  Q 121.48 278.66 123.20 280.19
  C 130.39 286.58 127.54 298.21 117.49 299.21
  Q 116.81 299.27 116.73 298.87
  Z"
/>
<path fill="#361714" d="
  M 269.99 280.29
  L 267.57 284.07
  Q 267.88 282.18 268.23 280.84
  Q 268.49 279.87 269.99 280.29
  Z"
/>
<path fill="#361714" d="
  M 68.07 287.84
  Q 68.97 294.49 68.06 301.12
  Q 67.17 300.07 66.09 300.57
  Q 65.23 294.54 66.13 288.49
  L 66.71 288.99
  Q 67.14 289.37 67.44 288.88
  L 68.07 287.84
  Z"
/>
<path fill="#361714" d="
  M 300.73 295.18
  Q 303.29 297.43 306.76 298.78
  Q 312.55 301.05 317.17 297.63
  A 1.25 1.25 0.0 0 1 317.89 297.38
  Q 318.05 297.37 318.22 297.38
  Q 318.48 297.38 318.67 297.21
  Q 319.60 296.40 321.05 296.70
  Q 318.86 299.34 319.89 299.42
  Q 317.03 302.61 312.12 302.47
  Q 307.51 300.96 309.89 302.76
  Q 305.77 301.92 302.75 300.03
  Q 301.36 299.16 300.20 297.09
  L 300.99 297.61
  Q 301.42 297.90 301.38 297.38
  Q 301.29 296.33 300.73 295.18
  Z"
/>
</svg>
